<svg width="121" height="116" viewBox="0 0 121 116" fill="none" xmlns="http://www.w3.org/2000/svg">
<path d="M67.3497 0.28226C72.258 -0.230318 77.5987 -0.0320383 82.4498 0.773509C89.6962 1.97679 97.5871 4.83944 101.997 11.0736C104.269 14.2855 105.244 18.1733 104.549 22.0744C103.87 25.8821 102.029 28.9648 98.8406 31.175C95.1241 33.7515 90.0187 34.6573 85.5967 33.8337C82.3174 33.223 79.5871 31.456 77.7304 28.6766C71.6531 19.5793 82.7245 15.673 83.26 11.9171C83.3493 11.2911 83.1644 10.7176 82.7603 10.238C81.3881 8.60983 77.6714 8.2864 75.6499 8.17624C64.4125 7.56359 52.8679 12.8103 44.617 20.2037C34.9607 28.8561 28.4289 41.1266 27.749 54.1719C27.3731 61.3808 28.9919 68.8876 33.952 74.3572C38.118 78.9516 44.1553 81.2403 50.268 81.5398C59.3692 81.9859 67.8522 78.5647 74.5375 72.496C78.291 68.8569 79.6502 65.9839 81.6876 61.3529C80.9821 72.2499 79.2344 79.595 72.2835 88.5019C64.5874 98.458 53.2551 104.954 40.7744 106.563C9.2219 110.356 -6.60779 79.6705 2.60151 52.1633C12.2779 23.2613 37.0971 3.73578 67.3497 0.28226Z" fill="#141C62"/>
<path d="M97.63 41.7071C101.628 40.6072 105.261 39.9263 109.272 41.1873C122.826 45.6674 121.616 62.9178 117.97 73.8352C112.741 88.9944 101.779 101.501 87.4364 108.673C80.1419 112.314 70.8133 114.988 62.6177 115.481L62.4271 114.754L63.4317 114.518C66.0349 114.635 70.6338 113.288 73.1144 112.514C75.7408 110.881 78.7209 109.842 81.378 108.268C89.7895 103.235 96.5791 96.4133 101.271 87.6997C108.354 74.5426 109.717 54.0195 96.6368 43.9503C95.8324 43.3311 95.5535 43.8781 94.9038 42.7208C95.3425 42.1463 96.891 41.8787 97.63 41.7071Z" fill="#88CF6D"/>
<path d="M109.272 41.1873C122.826 45.6673 121.616 62.9178 117.97 73.8352C112.741 88.9944 101.779 101.501 87.4364 108.673C80.1419 112.314 70.8133 114.988 62.6177 115.481L62.4271 114.754L63.4317 114.518C66.0349 114.635 70.6338 113.288 73.1144 112.514C76.6577 112.499 81.0775 110.685 84.2749 109.252C99.2076 102.641 110.883 90.342 116.709 75.0858C120.82 64.2052 122.46 46.7586 109.079 41.7348L109.272 41.1873Z" fill="#044249"/>
<path d="M97.63 41.7071C101.628 40.6072 105.261 39.9263 109.272 41.1873L109.079 41.7348C105.387 40.869 101.649 41.0635 97.9551 41.9295L97.7896 41.9694L97.63 41.7071Z" fill="#1A8370"/>
<path d="M77.227 40.8003C81.1136 40.0927 85.7456 40.8997 89.4539 42.1531C100.724 45.9622 105.913 60.0102 103.99 71.0762C103.452 74.5634 102.978 76.7952 101.909 80.2196C96.4647 94.3693 87.7457 103.472 73.8335 109.946C72.7122 110.468 69.9672 111.555 68.7914 111.8C66.2437 112.913 62.8457 113.524 60.1066 114.103C60.9096 114.665 62.3224 114.381 63.4317 114.518L62.4271 114.754L62.6177 115.481C60.0133 115.834 56.433 115.771 53.7628 115.735C42.7314 115.59 33.8463 114.377 23.7133 109.677L24.7755 109.467C23.6496 108.582 23.4806 107.998 22.5107 106.951C39.464 112.789 53.7128 110.848 69.6056 103.197C73.331 101.112 75.8161 99.4632 79.2382 96.9727C90.3532 87.7892 100.388 74.769 100.561 59.6384C100.613 55.0402 98.7939 49.951 95.4206 46.7103C90.3508 41.8395 84.3932 41.4828 77.7208 41.5777C77.8659 41.4158 77.8277 41.3935 77.887 41.1411L77.227 40.8003Z" fill="#0A9B80"/>
<path d="M23.7133 109.677L24.7755 109.467C33.6764 113.032 41.2875 114.625 50.8875 114.678C52.0052 114.684 55.5956 114.837 56.5504 114.704C57.2845 114.256 59.1867 114.162 60.1066 114.103C60.9096 114.665 62.3224 114.381 63.4317 114.518L62.4272 114.754L62.6177 115.481C60.0133 115.834 56.433 115.771 53.7628 115.735C42.7314 115.59 33.8463 114.377 23.7133 109.677Z" fill="#141C62"/>
<path d="M56.5504 114.704C57.2845 114.256 59.1867 114.162 60.1066 114.103C60.9096 114.665 62.3224 114.381 63.4317 114.518L62.4271 114.754C60.2979 114.84 58.6872 114.934 56.5504 114.704Z" fill="#D9D7E7"/>
<path d="M101.512 79.5894L101.909 80.2196C96.4647 94.3693 87.7457 103.472 73.8335 109.946C72.7122 110.468 69.9672 111.555 68.7914 111.8C69.4118 110.83 73.4925 109.642 74.9723 108.892C86.4548 103.074 97.6399 92.1041 101.512 79.5894Z" fill="#044249"/>
<path d="M79.2382 96.9727C79.0919 97.7914 79.0935 97.9775 78.4003 98.5656C76.8618 99.8706 71.5804 103.369 69.6056 103.197C73.331 101.112 75.816 99.4632 79.2382 96.9727Z" fill="#1A8370"/>
<path d="M101.512 79.5894C102.224 77.083 103.052 71.4603 103.761 69.822L103.99 71.0762C103.452 74.5634 102.978 76.7952 101.909 80.2196L101.512 79.5894Z" fill="#1A8370"/>
<path d="M79.773 60.5952C74.9231 64.9815 65.8596 69.8497 59.4358 65.5168C54.517 62.1992 55.3952 55.0051 58.7442 50.7444C63.4136 44.8039 69.8589 41.878 77.227 40.8003L77.887 41.1411C77.8277 41.3935 77.8659 41.4158 77.7208 41.5778C70.1688 42.6885 60.3208 46.7792 57.5936 54.8511C53.6357 66.5659 66.5934 68.4833 74.1773 63.7649C75.7717 62.773 78.0651 61.471 79.773 60.5952Z" fill="#184D62"/>
<path d="M77.0294 52.2207C78.8603 52.3963 80.4379 53.1545 80.9561 55.0752C81.1987 55.9909 81.0656 56.9659 80.5865 57.7831C79.8494 59.042 79.0579 59.3307 77.7232 59.6661C75.7593 59.4439 74.0132 58.9201 73.446 56.7477C73.2168 55.8819 73.3565 54.9594 73.8318 54.2002C74.6071 52.9623 75.6801 52.5299 77.0294 52.2207Z" fill="#88CF6D"/>
<path d="M23.7133 109.677C23.1494 109.514 21.1326 108.358 20.6034 108.036C14.7932 104.506 9.85777 99.706 6.16753 93.9962C11.3493 100.085 14.9943 103.873 22.5107 106.951C23.4806 107.998 23.6496 108.582 24.7755 109.467L23.7133 109.677Z" fill="#184D62"/>
</svg>
