<svg width="124" height="120" viewBox="0 0 124 120" fill="none" xmlns="http://www.w3.org/2000/svg">
<path d="M73.1501 0.0523872C85.324 -0.62355 107.618 5.17981 106.225 21.058C105.898 24.8277 104.072 28.3089 101.156 30.7199C93.7144 36.9018 78.2328 36.3929 76.5912 24.3822C75.8844 19.2107 80.4155 16.6696 83.1558 13.5571C86.7943 9.42434 77.1305 7.90442 74.6274 8.35348C49.6993 9.82817 27.5919 33.5659 28.3906 58.6567C28.8579 73.3354 39.1573 83.4226 53.9326 82.5878C63.6936 82.0436 70.7105 78.1975 77.3056 71.0626C80.0173 67.4532 80.4844 66.0278 82.6023 62.1908C82.2643 64.91 82.355 67.7858 81.934 70.4425C77.7819 96.6383 47.2641 116.178 22.0245 106.384C8.25029 101.039 0.834201 87.7103 0.0769349 73.4804C-0.847206 56.1137 6.63733 39.565 18.0497 26.7918C32.1092 10.8786 51.9497 1.25051 73.1501 0.0523872Z" fill="#1D2A6A"/>
<path d="M86.6869 42.2305C104.543 48.189 108.469 66.7712 103.066 83.2157C98.6394 96.6894 88.0578 107.699 75.4198 113.913C61.6151 120.658 45.7149 121.716 31.1377 116.861C23.2168 114.145 16.7588 109.883 11.2222 103.664C9.91741 102.199 8.46053 100.718 7.44077 99.0435C10.0496 101.059 12.0643 103.597 14.7816 105.552C18.7775 108.426 23.3227 110.457 28.1473 111.473C52.6252 116.631 78.0265 101.891 90.9938 81.5401C97.7138 70.9939 101.882 54.5919 90.4622 45.5964C89.1411 44.5574 87.2834 43.5925 85.6524 43.1713L86.6869 42.2305Z" fill="#219779"/>
<path d="M103.279 41.2888C106.865 40.7584 112.552 41.9277 115.413 44.0814C129.884 54.973 122.99 78.7576 114.684 90.827C104.052 106.275 88.8797 115.56 71.0211 119.085C68.1919 119.738 65.6136 120.037 62.7324 119.752C76.734 116.466 88.2347 110.777 97.3308 99.0768C107.58 85.8941 112 66.0582 102.778 51.1689C100.636 47.7104 98.2407 45.74 95.0288 43.2728C97.3423 42.4656 100.882 41.5783 103.279 41.2888Z" fill="#F8C21A"/>
<path d="M76.054 51.9667C78.6251 51.9111 78.8836 52.0738 80.9004 53.5293C82.5223 57.0807 81.9387 58.5592 78.5295 60.4236C76.6215 60.659 74.5208 60.0575 73.4637 58.345C72.9132 57.4616 72.748 56.3915 73.0065 55.3832C73.4431 53.6333 74.6192 52.8362 76.054 51.9667Z" fill="#F9BD17"/>
<path d="M71.194 43.4399C66.7557 44.4939 61.1569 48.9386 58.9018 52.8789C56.5166 57.0461 56.1746 62.4721 60.983 65.0256C65.694 67.5273 70.3135 66.291 74.9049 64.2967C75.9725 63.8268 76.6847 63.0184 77.7851 62.6952L77.8979 62.9402C74.6799 66.4305 66.399 68.5614 61.9079 66.7059C56.3865 64.4249 54.852 59.1939 57.121 53.9476C59.6975 47.9905 64.7548 45.0161 70.4771 42.6695L71.194 43.4399Z" fill="#1D2A6A"/>
<path d="M70.4771 42.6695C76.0463 40.7434 81.0851 40.806 86.6869 42.2305L85.6524 43.1713C81.248 41.541 75.6214 42.4131 71.194 43.4399L70.4771 42.6695Z" fill="#046B96"/>
</svg>
