<svg width="240" height="240" viewBox="0 0 240 240" fill="none" xmlns="http://www.w3.org/2000/svg">
<g clip-path="url(#clip0_1_3)">
<path d="M0 0H240V240H0V0Z" fill="white"/>
<path d="M118.86 54.8925C122.845 54.6707 126.843 54.9197 130.77 55.6344C146.073 58.5076 157.479 66.3579 166.226 79.1244C165.496 79.5479 164.687 79.9557 163.932 80.3373C158.684 82.9888 153.47 85.8257 148.165 88.3566C142.475 82.1283 136.538 78.2606 128.018 76.763C119.647 75.2229 111.01 77.1101 104.045 82.0005C97.0317 86.9347 92.9827 93.8181 91.5108 102.161C91.4056 102.924 91.3178 103.688 91.2476 104.455C90.4324 113.139 93.1842 121.432 98.7246 128.108C95.7977 128.834 92.3048 130.113 89.4155 130.334C84.3009 130.723 79.6099 128.73 75.7877 125.42C70.8682 121.159 68.4244 114.516 68.068 108.127C67.3612 95.4564 72.4216 82.5946 80.7953 73.181C90.7433 61.9976 103.995 55.7718 118.86 54.8925Z" fill="#43B9C1"/>
<path d="M69.135 119.625C69.589 120.203 70.1633 121.485 70.6245 122.182C74.9309 128.964 84.311 133.719 92.3231 131.55C98.8548 129.783 105.25 128.023 111.947 130.569C115.723 132.005 118.464 133.22 122.673 133.638C124.725 133.833 126.786 133.916 128.848 133.888C130.355 133.853 132.48 133.628 133.887 133.834C135.764 134.109 137.389 136.342 135.902 138.079C131.339 143.409 124.12 142.966 117.807 142.198C116.515 142.041 115.108 141.416 113.805 141.513C112.978 141.612 112.969 143.021 113.287 143.621C114.279 145.495 116.983 146.571 118.852 147.166C125.852 149.392 131.841 148.706 138.204 145.078C140.89 143.566 143.302 141.614 145.337 139.301C146.718 137.701 148.009 136.003 149.353 134.373C150.895 132.502 153.008 130.038 154.409 133.589C153.187 138.023 148.678 142.985 145.487 146.277C143.653 148.118 141.689 149.706 139.651 151.304C138.707 152.046 135.804 153.128 137.101 154.4C137.927 154.518 139.311 153.439 140.014 152.95C143.704 150.381 146.958 147.307 149.889 143.907C151.425 142.216 152.624 140.272 153.979 138.443C154.434 137.827 155.241 137.378 155.971 137.827C158.075 139.12 156.234 142.254 155.312 143.732C149.79 152.573 141.434 159.308 131.072 161.414C117.782 164.171 103.715 161.109 92.3892 153.739C80.2687 145.839 72.2136 133.616 69.135 119.625Z" fill="#15A175"/>
<path d="M131.648 98.4928C133.129 98.5439 134.878 98.4787 136.393 98.4765L146.078 98.4711L173.602 98.4315C178.001 120.846 166.704 147.356 145.629 157.324C145.12 157.595 143.243 158.639 142.796 158.633C144.131 157.582 145.727 156.838 147.169 155.58C151.747 151.601 157.145 146.06 158.584 140.018C158.937 138.541 157.76 136.116 155.94 136.097C155.87 136.03 155.798 135.963 155.728 135.896C155.914 134.476 156.431 133.284 155.728 131.902C155.368 131.113 154.739 130.581 153.923 130.312C152.401 129.812 151.268 130.334 149.94 131.01C149.143 130.396 148.65 129.994 147.637 129.764C150.507 126.209 153.335 120.475 154.064 116.002L130.846 115.945C135.149 112.802 136.346 105.644 133.645 101.105C133.315 100.551 131.755 98.7944 131.648 98.4928Z" fill="#142E82"/>
<path d="M123.032 96.9492C128.393 96.7172 132.925 100.881 133.146 106.242C133.368 111.604 129.196 116.128 123.833 116.339C118.486 116.55 113.977 112.391 113.756 107.044C113.535 101.697 117.684 97.1805 123.032 96.9492Z" fill="#43B9C1"/>
<path d="M145.945 131.251C147.356 131.186 147.824 131.548 148.795 132.485C145.563 136.794 142.405 140.91 137.708 143.593C131.718 147.014 127.131 147.529 120.499 145.827C119.657 145.582 117.634 145.146 117.289 144.288C117.731 143.564 119.603 144.021 120.469 144.1C124.74 144.486 129.12 144.401 132.975 142.274C135.18 141.057 137.702 139.359 138.462 136.816C141.223 135.061 143.448 132.871 145.945 131.251Z" fill="#15A175"/>
</g>
<defs>
<clipPath id="clip0_1_3">
<rect width="240" height="240" fill="white"/>
</clipPath>
</defs>
</svg>
