<svg width="107" height="108" viewBox="0 0 107 108" fill="none" xmlns="http://www.w3.org/2000/svg">
<path d="M50.8573 0.0784523C54.8428 -0.143384 58.8401 0.105643 62.7671 0.820369C78.0706 3.69357 89.4764 11.5438 98.2233 24.3104C97.4932 24.7339 96.6846 25.1417 95.9299 25.5233C90.6811 28.1747 85.4674 31.0116 80.1624 33.5425C74.4729 27.3142 68.535 23.4466 60.0155 21.9489C51.6448 20.4088 43.0075 22.296 36.0423 27.1865C29.0292 32.1207 24.9802 39.004 23.5083 47.3472C23.4031 48.1096 23.3153 48.8743 23.2451 49.6407C22.43 58.3252 25.1817 66.618 30.7221 73.2942C27.7953 74.0195 24.3024 75.2992 21.413 75.5196C16.2985 75.9086 11.6074 73.9164 7.78526 70.6059C2.86573 66.3449 0.421902 59.7023 0.0655352 53.3129C-0.641223 40.6423 4.41917 27.7805 12.7928 18.367C22.7409 7.18354 35.9929 0.95771 50.8573 0.0784523Z" fill="#43B9C1"/>
<path d="M1.13253 64.811C1.58651 65.3887 2.16085 66.6707 2.62198 67.368C6.92839 74.1496 16.3085 78.9051 24.3206 76.736C30.8523 74.9688 37.2475 73.2086 43.9442 75.7551C47.7208 77.1906 50.4612 78.4059 54.6706 78.8242C56.7225 79.0188 58.7839 79.102 60.8452 79.0739C62.3522 79.0387 64.478 78.8137 65.8842 79.02C67.7616 79.2953 69.387 81.5278 67.8999 83.2645C63.3366 88.5953 56.1178 88.1524 49.8049 87.3836C48.5126 87.2266 47.1058 86.602 45.8022 86.6992C44.976 86.7977 44.9669 88.2074 45.2842 88.8074C46.2761 90.6813 48.9802 91.757 50.8491 92.3524C57.8499 94.5778 63.8382 93.8922 70.2014 90.2641C72.8874 88.7524 75.2991 86.8 77.3346 84.4867C78.7151 82.8871 80.0065 81.1891 81.3506 79.559C82.8928 77.6875 85.0057 75.2242 86.4061 78.775C85.185 83.2094 80.6757 88.1711 77.4846 91.4629C75.6507 93.3039 73.6866 94.8918 71.6487 96.4903C70.7042 97.2321 67.8014 98.3137 69.0987 99.5864C69.9249 99.7035 71.3089 98.6254 72.012 98.1356C75.701 95.5668 78.9553 92.493 81.8862 89.0934C83.4225 87.4024 84.6214 85.4582 85.976 83.6289C86.4319 83.0125 87.2381 82.5637 87.9682 83.0125C90.0729 84.3063 88.2319 87.4399 87.3096 88.9176C81.7878 97.7594 73.4311 104.494 63.0694 106.6C49.7792 109.357 35.7128 106.295 24.3867 98.9254C12.2663 91.0246 4.21116 78.802 1.13253 64.811Z" fill="#15A175"/>
<path d="M63.646 43.6788C65.126 43.7299 66.8756 43.6647 68.3909 43.6625L78.0753 43.6571L105.599 43.6175C109.998 66.032 98.7014 92.5422 77.6264 102.51C77.1178 102.781 75.2405 103.825 74.794 103.819C76.1288 102.768 77.7249 102.024 79.1663 100.766C83.7448 96.7867 89.1424 91.2461 90.5815 85.2039C90.9342 83.7274 89.7577 81.3016 87.9377 81.2828C87.8674 81.216 87.796 81.1492 87.7256 81.0824C87.912 79.6621 88.4288 78.4703 87.7256 77.0875C87.3659 76.2989 86.7366 75.7668 85.921 75.4985C84.3987 74.9981 83.2655 75.5195 81.9378 76.1957C81.1409 75.5817 80.6475 75.1797 79.635 74.95C82.5049 71.3945 85.3327 65.6606 86.0616 61.1879L62.8432 61.1306C67.1464 57.9879 68.344 50.8296 65.6428 46.2909C65.3124 45.7366 63.7526 43.9804 63.646 43.6788Z" fill="#142E82"/>
<path d="M55.0292 42.1352C60.3905 41.9031 64.9222 46.0667 65.1436 51.4284C65.3651 56.7901 61.1932 61.3136 55.8307 61.5251C50.4835 61.736 45.9746 57.5774 45.7534 52.2303C45.5323 46.8831 49.6819 42.3665 55.0292 42.1352Z" fill="#43B9C1"/>
<path d="M77.9428 76.4371C79.3538 76.3715 79.8214 76.7336 80.7928 77.6711C77.5608 81.9801 74.4026 86.0957 69.7057 88.7793C63.7151 92.2 59.1284 92.7145 52.4967 91.0129C51.6542 90.768 49.6315 90.3321 49.287 89.4743C49.7288 88.75 51.6003 89.2071 52.4663 89.2856C56.7378 89.6723 61.1171 89.5867 64.9725 87.4598C67.178 86.2434 69.6999 84.5453 70.4593 82.0024C73.2202 80.2469 75.4456 78.0567 77.9428 76.4371Z" fill="#15A175"/>
</svg>
